<svg aria-hidden="true" style="position: absolute; width: 0; height: 0; overflow: hidden;" version="1.1" xmlns="http://www.w3.org/2000/svg" xmlns:xlink="http://www.w3.org/1999/xlink">
<defs>
<symbol id="icon-user" viewBox="0 0 32 32">
<path d="M0 32v-3c0-4.484 5.649-6.179 13.099-6.862-1.636-1.014-2.92-3.864-3.589-6.14-0.003 0-0.006 0.002-0.010 0.002-0.068 0-1.5-1.791-1.5-4 0-1.938-0.138-3.554 1.007-3.92-0.001-0.027-0.007-0.053-0.007-0.080 0-2.457 1.271-4.61 3.187-5.859 0.495-1.235 2.004-2.141 3.813-2.141s3.318 0.906 3.813 2.141c1.916 1.249 3.187 3.402 3.187 5.859 0 0.027-0.006 0.053-0.007 0.080 1.145 0.366 1.007 1.982 1.007 3.92 0 2.209-1.588 4-1.5 4-0.004 0-0.007-0.002-0.010-0.002-0.669 2.275-1.953 5.126-3.589 6.14 7.45 0.683 13.099 2.315 13.099 6.862v3h-32z"></path>
</symbol>
<symbol id="icon-ascend" viewBox="0 0 32 32">
<path d="M28 4v24h-24v-4h4v-4h4v-4h4v-4h4v-4h4v-4h4z"></path>
</symbol>
<symbol id="icon-clock" viewBox="0 0 32 32">
<path d="M16 0c-8.837 0-16 7.163-16 16s7.163 16 16 16 16-7.163 16-16-7.163-16-16-16zM20.586 23.414l-6.586-6.586v-8.828h4v7.172l5.414 5.414-2.829 2.829z"></path>
</symbol>
<symbol id="icon-book" viewBox="0 0 32 32">
<path d="M28 4v26h-21c-1.657 0-3-1.343-3-3s1.343-3 3-3h19v-24h-20c-2.2 0-4 1.8-4 4v24c0 2.2 1.8 4 4 4h24v-28h-2z"></path>
<path d="M7.002 26v0c-0.001 0-0.001 0-0.002 0-0.552 0-1 0.448-1 1s0.448 1 1 1c0.001 0 0.001-0 0.002-0v0h18.997v-2h-18.997z"></path>
</symbol>
</defs>
</svg>
